<?xml version="1.0" standalone="no"?>
<!DOCTYPE svg PUBLIC "-//W3C//DTD SVG 1.1//EN" "http://www.w3.org/Graphics/SVG/1.1/DTD/svg11.dtd">
<svg xmlns="http://www.w3.org/2000/svg">
<metadata>Copyright (C) 2015 by original authors @ fontello.com</metadata>
<defs>
<font id="aviapark" horiz-adv-x="1000" >
<font-face font-family="aviapark" font-weight="400" font-stretch="normal" units-per-em="1000" ascent="850" descent="-150" />
<missing-glyph horiz-adv-x="1000" />
<glyph glyph-name="vk" unicode="&#xe000;" d="m782 328c-29 30-59 51-121 61v4c46 14 66 36 84 65 19 29 32 63 32 100 0 33-5 62-19 86-13 25-33 45-61 60-25 14-52 22-81 27s-72 9-129 9h-277v-780h314c53 0 97 8 132 18 35 9 67 27 96 50 24 19 44 44 58 73s18 63 18 101c0 53-17 95-46 126l0 0z m-386 269h25c35 0 61-1 78-1 17-1 33-4 45-9 14-6 24-16 30-29 6-13 10-26 10-38 0-17-3-32-9-45-6-13-17-23-32-30-14-7-28-6-41-7-14 0-39 2-72 2l-33 2-1 155 0 0z m224-441c-8-15-21-26-38-33-20-9-40-10-59-10-20-1-55 2-105 2h-21v187h46c35 0 62-1 83-1 20-1 37-4 48-8 20-7 34-17 44-31s14-32 14-56c0-19-4-35-12-50l0 0z" horiz-adv-x="1000" />
<glyph glyph-name="fb" unicode="&#xe001;" d="m535 843v-147h-87q-48 0-65-20t-17-60v-106h164l-22-165h-142v-424h-171v424h-142v165h142v122q0 104 58 161t155 57q82 0 127-7z" horiz-adv-x="571.4" />
<glyph glyph-name="insta" unicode="&#xe002;" d="m760 54v362h-75q11-35 11-73 0-71-36-130t-97-94-134-35q-110 0-188 76t-78 183q0 38 11 73h-79v-362q0-14 10-24t25-10h596q14 0 24 10t10 24z m-158 298q0 69-51 118t-122 49q-71 0-121-49t-51-118 51-118 121-49q72 0 122 49t51 118z m158 201v92q0 15-11 27t-27 11h-98q-16 0-27-11t-11-27v-92q0-17 11-28t27-11h98q16 0 27 11t11 28z m97 116v-638q0-45-32-77t-78-33h-637q-45 0-78 33t-32 77v638q0 45 32 77t78 33h637q45 0 78-33t32-77z" horiz-adv-x="857.1" />
<glyph glyph-name="youtube" unicode="&#xe003;" d="m542 156v-118q0-37-22-37-13 0-25 12v168q12 12 25 12 22 0 22-37z m188-1v-25h-50v25q0 38 25 38t25-38z m-539 122h60v52h-174v-52h59v-318h55v318z m161-318h50v276h-50v-211q-17-23-32-23-10 0-11 11-1 2-1 20v203h-50v-218q0-28 5-41 7-21 32-21 27 0 57 34v-30z m240 83v110q0 41-5 55-10 31-40 31-28 0-52-30v121h-50v-370h50v27q25-31 52-31 30 0 40 31 5 15 5 56z m188 6v7h-51q0-29-1-34-4-20-22-20-26 0-26 38v49h100v57q0 44-15 65-22 28-59 28-38 0-60-28-15-21-15-65v-96q0-44 16-65 22-29 60-29 40 0 60 30 10 15 12 30 1 5 1 33z m-339 509v117q0 39-24 39t-24-39v-117q0-39 24-39t24 39z m401-419q0-131-14-195-8-33-33-56t-57-25q-102-12-309-12t-310 12q-32 3-57 25t-32 56q-15 62-15 195 0 131 15 195 7 33 32 56t57 26q103 11 310 11t309-11q33-4 57-26t33-56q14-62 14-195z m-557 712h57l-67-223v-151h-56v151q-8 42-34 119-21 57-37 104h60l39-147z m207-186v-97q0-46-16-66-21-29-59-29-38 0-59 29-15 21-15 66v97q0 45 15 65 21 29 59 29 38 0 59-29 16-20 16-65z m187 91v-279h-51v31q-30-35-58-35-25 0-33 21-4 13-4 42v220h51v-205q0-19 0-20 2-12 12-12 15 0 32 24v213h51z" horiz-adv-x="857.1" />
<glyph glyph-name="ok" unicode="&#xe004;" d="m498 700c58 0 106-48 106-107 0-58-48-106-106-106-59 0-107 48-107 106 0 59 48 107 107 107z m0-363c141 0 256 115 256 256 0 142-115 257-256 257-142 0-257-115-257-257 0-141 115-256 257-256z m104-210c52 12 102 33 149 62 35 22 45 68 23 104-22 35-68 45-103 23-106-66-241-66-346 0-35 22-82 12-104-23-22-36-11-82 24-104 46-29 96-50 149-62l-144-144c-29-29-29-77 0-106 15-15 34-22 53-22 20 0 39 7 54 22l141 141 141-141c29-29 77-29 106 0 30 29 30 77 0 106l-143 144" horiz-adv-x="1000" />
<glyph glyph-name="marker" unicode="&#xe005;" d="m0 475q0 156 109 266t266 109 266-109 109-266q0-78-28-160t-85-166-101-141-110-133q-20-25-49-25l-4 0q-29 0-49 25-66 77-110 133t-101 141-85 166-28 160z m63 0q0-72 28-150t85-161 95-128 100-120l2 0q2-2 2-4l4 4q62 73 100 120t94 128 86 161 29 150q0 129-92 221t-221 91-221-91-91-221z m125 8q0 78 54 133t133 54 133-54 55-133-55-133-133-55-133 55-54 133z m31 0q0-65 46-111t110-45 110 45 46 111-46 110-110 46-110-46-46-110z" horiz-adv-x="750" />
<glyph glyph-name="search" unicode="&#xe006;" d="m772 78q30-34 6-62l-46-46q-36-32-68 0l-190 190q-74-42-156-42-128 0-223 95t-95 223 90 219 218 91 224-95 96-223q0-88-46-162z m-678 358q0-88 68-156t156-68 151 63 63 153q0 88-68 155t-156 67-151-63-63-151z" horiz-adv-x="789" />
<glyph glyph-name="like" unicode="&#xe007;" d="m500-79q-14 0-25 10l-348 336q-5 5-15 15t-31 36-38 55-30 67-13 77q0 123 71 192t196 70q34 0 70-12t67-33 54-38 42-38q20 20 42 38t54 38 67 33 70 12q125 0 196-70t71-192q0-123-128-251l-347-335q-10-10-25-10z" horiz-adv-x="1000" />
<glyph glyph-name="calendar" unicode="&#xe008;" d="m959-150h-932c-15 0-27 12-27 27v825c0 14 12 26 27 26h932c14 0 26-12 26-26v-825c0-15-12-27-26-27z m-903 56h876v769h-876v-769z m866 547h-859c-14 0-26 13-26 27 0 15 12 27 26 27h859c15 0 27-12 27-27 2-14-10-27-27-27z m-654 151c-15 0-27 12-27 27v192c-3 15 10 27 27 27 14 0 26-12 26-27v-192c0-15-12-27-26-27z m226 0c-15 0-27 12-27 27v192c0 15 12 27 27 27 15 0 27-12 27-27v-192c0-15-12-27-27-27z m226 0c-14 0-27 12-27 27v192c0 15 13 27 27 27 15 0 27-12 27-27v-192c0-15-12-27-27-27z" horiz-adv-x="985" />
<glyph glyph-name="discount" unicode="&#xe009;" d="m529 682c-27 0-67-15-84-34l-378-375c-7-7-9-17-9-26 0-10 5-20 9-27l303-303c15-14 39-14 51 0l375 375c19 20 36 60 33 89l-12 245c-2 22-21 41-43 41l-243 15c0 0-2 0-2 0m-132-832c-24 0-48 10-65 26l-306 306c-16 17-26 41-26 65 0 24 10 48 26 65l378 377c31 31 89 53 132 50l243-14c50-2 91-46 96-96l14-243c3-43-19-101-50-132l-377-375c-17-17-41-29-65-29m432 678c-48 0-93 10-132 26-14 8-21 24-14 39 7 14 24 21 38 14 31-14 68-21 108-21 97 0 176 48 176 103 0 55-82 103-176 103-84 0-158-36-173-86-5-15-21-24-36-19-14 4-24 21-19 36 24 74 118 127 228 127 130 0 234-70 234-161 0-91-104-161-234-161" horiz-adv-x="1063" />
<glyph glyph-name="percent" unicode="&#xe010;" d="m501 797c-246 0-446-200-446-446s200-446 446-446 446 198 446 444-200 448-446 448m0-947c-277 0-501 224-501 499 0 277 224 501 501 501 277 0 501-224 501-501 0-275-226-499-501-499m-118 749c-36 0-67-28-67-67 0-36 29-67 67-67 36 0 68 28 68 67-3 39-32 67-68 67m0-188c-67 0-120 54-120 121 0 67 53 120 120 120 68 0 121-53 121-120 0-65-56-121-121-121m244-173c-37 0-68-29-68-67 0-37 29-68 68-68 36 0 67 29 67 68-2 36-31 67-67 67m0-188c-68 0-121 53-121 121 0 67 53 120 121 120 67 0 120-53 120-120 0-66-55-121-120-121m-316 80c-7 0-15 2-19 7-10 9-10 26 0 38l390 391c10 9 26 9 39 0 9-10 9-27 0-39l-391-390c-5-5-12-7-19-7m-89-314l0 0" horiz-adv-x="1002" />
<glyph glyph-name="rupor" unicode="&#xe011;" d="m955 201c-17 0-31 14-31 31 0 17 14 31 31 31 73 0 132 59 132 132 0 73-59 132-132 132-17 0-31 14-31 31 0 18 14 32 31 32 108 0 198-87 198-198 0-104-90-191-198-191m-52 559c-153-202-486-202-688-202-83 0-152-69-152-152s69-153 152-153c25 0 45 0 73 0 14 0 25-11 28-21l97-309 111 35-73 239c-3 11 0 21 7 32 7 6 18 13 28 10 198-28 340-94 420-198 0 163 0 417 0 424v0 267c0 10-3 21-3 28m-511-910c-3 0-10 0-13 3-7 4-14 11-14 18l-101 319c-17 0-31 0-49 0-118 0-215 98-215 216 0 118 97 215 215 215 198 0 532 0 653 198 14 28 31 31 45 31 56 0 56-87 56-118l0-271c0-3 0-10 0-10v-424c0-21-4-38-7-49-11-31-35-31-42-31-24 0-41 24-55 38-59 91-174 153-341 184l70-222c3-17-4-35-21-38l-174-52c0-7-3-7-7-7" horiz-adv-x="1153" />
<glyph glyph-name="tag" unicode="&#xe012;" d="m717 649v179c0 12-10 22-22 22h-673c-12 0-22-10-22-22v-758c0-12 10-21 22-21h184v46h-160v709h627v-157h44z m169-41h-627v-712h627v712z m46 24v-758c0-12-9-22-22-22h-673c-12 0-21 10-21 22v758c0 12 9 22 21 22h671c15 0 24-10 24-22" horiz-adv-x="932" />
<glyph glyph-name="wifi" unicode="&#xe014;" d="m525 50c-41 0-75 34-75 75s34 75 75 75c41 0 75-34 75-75s-34-75-75-75z m0 100c-14 0-25-11-25-25s11-25 25-25 25 11 25 25-11 25-25 25z m-172 52c-5 0-9 1-13 3-12 7-16 23-9 34 20 34 48 61 81 81 34 19 73 30 113 30s79-11 113-30c33-20 61-48 81-81 7-11 3-27-9-34s-27-3-34 9c-32 53-89 86-151 86s-119-33-151-86c-4-8-13-12-21-12z m452 108c-7 0-15 3-20 10-62 83-157 130-260 130s-198-47-260-130c-9-11-24-14-35-5s-14 24-5 35c34 45 79 83 129 109 54 27 111 41 171 41s118-14 171-41c50-26 95-64 129-109 9-11 6-27-5-35-4-4-9-5-15-5z m107 107c-7 0-14 3-19 9-91 111-225 174-368 174s-277-63-368-174c-9-11-24-13-35-4s-12 25-3 35c100 123 248 193 406 193s306-70 407-193c8-10 7-26-4-35-5-4-10-5-16-5z" horiz-adv-x="1000" />
<glyph glyph-name="dinner" unicode="&#xe015;" d="m421 673c-9 41-21 92-21 152 0 14-11 25-25 25s-25-11-25-25c0-65 13-120 23-164 10-42 17-76 6-90-9-12-36-19-79-21 0 9 0 17 0 25v200c0 14-11 25-25 25s-25-11-25-25v-200c0 0 0 0 0 0s0 0 0 0c0-8 0-16 0-25-43 2-70 9-79 21-11 14-3 48 6 91 11 43 23 98 23 163 0 14-11 25-25 25s-25-11-25-25c0-60-12-111-21-152-13-56-23-100 3-133 19-25 55-37 117-40-6-139-26-259-43-358-22-133-37-220 1-264 15-19 38-28 68-28s53 9 69 28c37 44 23 132 0 264-16 99-37 219-42 358 61 3 97 15 117 40 26 33 16 77 3 133z m-116-763c-3-4-10-10-30-10s-27 6-30 10c-23 27-8 118 10 223 7 39 14 80 20 124 7-44 13-85 20-123 18-106 33-197 10-224z m449 545c56 21 96 99 96 195 0 112-55 200-125 200s-125-88-125-200c0-96 40-174 96-195-8-121-25-227-40-313-22-132-37-220 1-264 15-19 38-28 68-28s53 9 69 28c37 44 22 132 0 264-14 86-32 192-40 313z m-104 195c0 88 40 150 75 150s75-62 75-150-39-150-75-150-75 62-75 150z m105-740c-3-4-10-10-30-10s-27 6-30 10c-23 27-7 118 10 223 7 38 14 79 20 124 7-45 14-86 20-123 18-106 33-197 10-224z" horiz-adv-x="1000" />
<glyph glyph-name="calendar-full" unicode="&#xe016;" d="m925 750h-125v25c0 14-11 25-25 25s-25-11-25-25v-25h-500v25c0 14-11 25-25 25s-25-11-25-25v-25h-125c-41 0-75-34-75-75v-700c0-41 34-75 75-75h850c41 0 75 34 75 75v700c0 41-34 75-75 75z m-850-50h125v-75c0-14 11-25 25-25s25 11 25 25v75h500v-75c0-14 11-25 25-25s25 11 25 25v75h125c14 0 25-11 25-25v-125h-900v125c0 14 11 25 25 25z m850-750h-850c-14 0-25 11-25 25v525h900v-525c0-14-11-25-25-25z m-550 400h-50c-14 0-25 11-25 25s11 25 25 25h50c14 0 25-11 25-25s-11-25-25-25z m150 0h-50c-14 0-25 11-25 25s11 25 25 25h50c14 0 25-11 25-25s-11-25-25-25z m150 0h-50c-14 0-25 11-25 25s11 25 25 25h50c14 0 25-11 25-25s-11-25-25-25z m150 0h-50c-14 0-25 11-25 25s11 25 25 25h50c14 0 25-11 25-25s-11-25-25-25z m-600-100h-50c-14 0-25 11-25 25s11 25 25 25h50c14 0 25-11 25-25s-11-25-25-25z m150 0h-50c-14 0-25 11-25 25s11 25 25 25h50c14 0 25-11 25-25s-11-25-25-25z m150 0h-50c-14 0-25 11-25 25s11 25 25 25h50c14 0 25-11 25-25s-11-25-25-25z m150 0h-50c-14 0-25 11-25 25s11 25 25 25h50c14 0 25-11 25-25s-11-25-25-25z m150 0h-50c-14 0-25 11-25 25s11 25 25 25h50c14 0 25-11 25-25s-11-25-25-25z m-600-100h-50c-14 0-25 11-25 25s11 25 25 25h50c14 0 25-11 25-25s-11-25-25-25z m150 0h-50c-14 0-25 11-25 25s11 25 25 25h50c14 0 25-11 25-25s-11-25-25-25z m150 0h-50c-14 0-25 11-25 25s11 25 25 25h50c14 0 25-11 25-25s-11-25-25-25z m150 0h-50c-14 0-25 11-25 25s11 25 25 25h50c14 0 25-11 25-25s-11-25-25-25z m150 0h-50c-14 0-25 11-25 25s11 25 25 25h50c14 0 25-11 25-25s-11-25-25-25z m-600-100h-50c-14 0-25 11-25 25s11 25 25 25h50c14 0 25-11 25-25s-11-25-25-25z m150 0h-50c-14 0-25 11-25 25s11 25 25 25h50c14 0 25-11 25-25s-11-25-25-25z m150 0h-50c-14 0-25 11-25 25s11 25 25 25h50c14 0 25-11 25-25s-11-25-25-25z m150 0h-50c-14 0-25 11-25 25s11 25 25 25h50c14 0 25-11 25-25s-11-25-25-25z m150 0h-50c-14 0-25 11-25 25s11 25 25 25h50c14 0 25-11 25-25s-11-25-25-25z" horiz-adv-x="1000" />
<glyph glyph-name="store" unicode="&#xe017;" d="m900 375v50c0 4-1 8-3 11l-100 200c-4 9-12 14-22 14h-600c-9 0-18-5-22-14l-100-200c-2-3-3-7-3-11v-50c0-41 20-77 50-100v-325h-25c-14 0-25-11-25-25s11-25 25-25h800c14 0 25 11 25 25s-11 25-25 25h-25v325c30 23 50 59 50 100z m-325-75c-41 0-75 34-75 75v25h150v-25c0-41-34-75-75-75z m-475 75v25h150v-25c0-41-34-75-75-75s-75 34-75 75z m350 225v-150h-143l38 150h105z m156 0l37-150h-143v150h106z m-306-200h150v-25c0-41-34-75-75-75s-75 34-75 75v25z m400 0h150v-25c0-41-34-75-75-75s-75 34-75 75v25z m135 50h-140l-38 150h103l75-150z m-644 150h102l-37-150h-141l75 150z m-41-347c8-2 16-3 25-3 41 0 77 20 100 50 23-30 59-50 100-50s77 20 100 50c18-24 45-41 75-47v-303h-400v303z m650-303h-200v303c31 6 57 23 75 47 23-30 59-50 100-50 9 0 17 1 25 2v-302z m-100 175c0-14-11-25-25-25s-25 11-25 25c0 14 11 25 25 25s25-11 25-25z m-475-25c-6 0-13 3-18 7-9 10-9 26 0 36l50 50c10 9 26 9 36 0s9-26 0-36l-50-50c-5-5-12-7-18-7z m50-100c-6 0-13 3-18 7-9 10-9 26 0 36l150 150c10 9 26 9 36 0s9-26 0-36l-150-150c-5-5-12-7-18-7z m150 0c-6 0-13 3-18 7-9 10-9 26 0 36l50 50c10 9 26 9 36 0s9-26 0-36l-50-50c-5-5-12-7-18-7z" horiz-adv-x="1000" />
<glyph glyph-name="baby" unicode="&#xe018;" d="m675 300c-41 0-75 34-75 75s34 75 75 75 75-34 75-75c0-41-34-75-75-75z m0 100c-14 0-25-11-25-25s11-25 25-25 25 11 25 25-11 25-25 25z m-350-100c-41 0-75 34-75 75s34 74 75 74 75-33 75-74c0-41-34-75-75-75z m0 99c-14 0-25-11-25-24s11-25 25-25 25 11 25 25-11 24-25 24z m175-349c-84 0-161 42-208 111-8 12-4 27 7 35s27 4 35-7c37-56 99-89 166-89s129 33 166 89c8 11 24 15 35 7s15-23 7-35c-47-69-124-111-208-111z m421 409c-33 89-94 165-173 217 1 12 2 29 2 49-1 53-9 77-10 80-7 20-21 34-39 41s-39 3-56-8l-87-57c-16 12-36 19-58 19s-42-7-58-19l-86 57c-18 11-38 14-57 8s-32-21-39-41c-1-3-9-27-10-80 0-20 1-37 2-49-78-52-139-128-173-217-50-37-79-96-79-159s29-121 79-159c32-83 87-155 159-207 77-55 167-84 262-84s185 29 262 84c73 52 128 124 159 207 50 38 79 97 79 159s-29 122-79 159z m-249 337c4 3 9 4 13 2s6-4 8-9c0-2 6-22 7-64 1-42-5-62-6-63-2-6-6-10-11-12-4-1-10-1-15 2l-69 36c1 4 1 8 1 12 0 15-3 30-9 43l81 53z m-172-46c28 0 50-22 50-50s-22-50-50-50c-28 0-50 22-50 50s22 50 50 50z m-200-25c1 42 7 62 7 63 2 6 5 9 9 10s8 1 12-2l82-53c-6-13-10-28-10-43 0-4 0-8 1-12l-68-36c-6-3-11-4-16-2-5 2-9 6-11 12 0 1-7 21-6 63z m586-548c-4-3-8-7-9-12-57-158-209-265-377-265s-320 107-377 265c-1 5-5 9-9 12-40 28-64 74-64 123s24 95 64 123c4 3 8 7 9 12 28 77 79 144 146 191 8-10 18-18 30-22 8-3 16-5 24-5 11 0 22 3 33 9l63 33c18-25 48-41 81-41s63 16 81 41l63-33c11-6 22-9 34-9 8 0 16 2 23 5 12 4 23 12 30 22 67-47 118-114 146-191 1-5 5-9 9-12 40-28 64-74 64-123s-24-95-64-123z" horiz-adv-x="1000" />
<glyph glyph-name="profile" unicode="&#xe019;" d="m925 0h-850c-41 0-75 34-75 75v550c0 41 34 75 75 75h850c41 0 75-34 75-75v-550c0-41-34-75-75-75z m-850 650c-14 0-25-11-25-25v-550c0-14 11-25 25-25h850c14 0 25 11 25 25v550c0 14-11 25-25 25h-850z m350-500c0 0 0 0 0 0h-250c-14 0-25 11-25 25 0 3 1 33 19 63 18 28 55 62 131 62s113-34 131-62c17-27 19-53 19-61 0-1 0-1 0-2 0-14-11-25-25-25z m-219 50h188c-2 4-4 9-7 13-16 25-45 37-87 37s-71-12-87-37c-3-4-5-9-7-13z m619 250h-250c-14 0-25 11-25 25s11 25 25 25h250c14 0 25-11 25-25s-11-25-25-25z m-50-100h-200c-14 0-25 11-25 25s11 25 25 25h200c14 0 25-11 25-25s-11-25-25-25z m0-100h-200c-14 0-25 11-25 25s11 25 25 25h200c14 0 25-11 25-25s-11-25-25-25z m-475 100c-55 0-100 45-100 100s45 100 100 100 100-45 100-100c0-55-45-100-100-100z m0 150c-28 0-50-22-50-50s22-50 50-50 50 22 50 50-22 50-50 50z m525-350h-250c-14 0-25 11-25 25s11 25 25 25h250c14 0 25-11 25-25s-11-25-25-25z" horiz-adv-x="1000" />
<glyph glyph-name="film-play" unicode="&#xe020;" d="m375 100c-4 0-8 1-11 3-9 4-14 13-14 22v450c0 9 5 18 14 22s18 4 26-2l300-225c6-5 10-12 10-20s-4-15-10-20l-300-225c-4-3-10-5-15-5z m25 425v-350l233 175-233 175z m575 225h-950c-14 0-25-11-25-25v-750c0-14 11-25 25-25h950c14 0 25 11 25 25v750c0 14-11 25-25 25z m-825-450h-100v100h100v-100z m0 150h-100v100h100v-100z m-100-200h100v-100h-100v100z m150 450h600v-700h-600v700z m650-300h100v-100h-100v100z m0 50v100h100v-100h-100z m0-200h100v-100h-100v100z m100 350h-100v100h100v-100z m-800 100v-100h-100v100h100z m-100-600h100v-100h-100v100z m800-100v100h100v-100h-100z" horiz-adv-x="1000" />
<glyph glyph-name="circle" unicode="&#xe022;" d="m857 350q0-117-57-215t-156-156-215-58-216 58-155 156-58 215 58 215 155 156 216 58 215-58 156-156 57-215z" horiz-adv-x="857.1" />
<glyph glyph-name="circle-empty" unicode="&#xe023;" d="m429 654q-83 0-153-41t-110-111-41-152 41-152 110-111 153-41 152 41 110 111 41 152-41 152-110 111-152 41z m428-304q0-117-57-215t-156-156-215-58-216 58-155 156-58 215 58 215 155 156 216 58 215-58 156-156 57-215z" horiz-adv-x="857.1" />
<glyph glyph-name="pig" unicode="&#xe024;" d="m1263 316h-97c-19 0-35 15-35 34 0 19 16 34 35 34h97c18 0 34-15 34-34 3-16-16-34-34-34m-413-394h109v147c0 12 7 22 16 31 97 66 153 159 153 256 0 191-206 344-459 344-63 0-125-9-181-28-13-3-25 0-35 6-94 78-212 97-281 103l112-200c7-12 7-28-3-40-15-19-31-41-40-63-7-12-19-19-32-19h-137v-200h134c13 0 25-6 32-18 31-60 81-113 146-150 10-7 19-19 19-32v-131h110v63c0 9 6 22 12 28 9 6 19 9 28 6 81-16 172-16 253 6 10 3 22 0 32-6 9-6 12-16 12-28v-75z m144-72h-181c-19 0-35 16-35 34v60c-65-10-131-13-197-3v-57c0-18-15-34-34-34h-181c-19 0-35 16-35 34v147c-62 41-112 91-147 150h-150c-18 0-34 16-34 35v272c0 18 16 34 34 34h147c10 16 19 28 28 41l-131 234c-6 9-6 22 0 34 6 10 16 16 28 19 0 0 13 0 28 0 63 0 222-9 347-109 60 18 122 25 188 25 294 0 531-188 531-416 0-116-62-225-172-306v-163c3-15-12-31-34-31" horiz-adv-x="1300" />
<glyph glyph-name="gift" unicode="&#xe025;" d="m104 575c-26 0-46-19-46-45v-573c0-26 20-46 46-46h618c26 0 45 20 45 46v569c0 26-19 46-45 46h-618z m618-725h-618c-55 0-104 45-104 104v572c0 59 45 104 104 104h618c58 0 103-45 103-104v-572c0-56-48-104-103-104m45 489h-709c-16 0-29 13-29 29 0 16 13 29 29 29h709c16 0 29-13 29-29-3-16-13-29-29-29m-217 239c-13 0-22 7-26 20-3 16 4 29 20 35 45 13 84 42 97 71 6 13 6 26 0 39-13 23-33 39-58 46-20 6-39 3-55-10-36-23-62-88-78-133-3-10-10-22-13-29-7-13-23-19-36-13-13 7-19 23-13 36 4 6 7 16 13 29 23 52 52 126 101 158 29 20 64 26 100 17 39-10 74-39 94-75 13-26 16-58 3-87-19-46-71-88-133-104-9 0-13 0-16 0m-307 0c-3 0-7 0-7 0-61 20-113 62-132 107-13 29-13 58 3 84 19 36 55 65 94 75 35 13 71 6 100-13 49-33 78-107 100-159 4-10 7-19 13-29 7-13 0-32-13-36-13-6-32 0-35 13-3 10-7 20-13 29-16 42-46 110-78 133-19 13-42 13-61 10-23-7-46-26-59-49-6-9-6-22 0-35 13-29 52-59 97-72 17-3 23-19 20-35-3-13-16-23-29-23" horiz-adv-x="825" />
<glyph glyph-name="sun" unicode="&#xe026;" d="m500 533c-103 0-183-84-183-183 0-103 84-183 183-183 103 0 183 84 183 183 0 103-84 183-183 183m0-443c-144 0-260 119-260 260 0 144 119 260 260 260 144 0 260-119 260-260 0-144-116-260-260-260m6 597c-22 0-38 16-38 38v87c0 22 16 38 38 38 20 0 39-16 39-38v-87c0-22-19-38-39-38m-189-48c-12 0-25 6-35 19l-42 73c-9 20-3 45 13 55 19 10 42 3 55-13l45-74c9-19 3-41-13-54-10-6-16-6-23-6m-137-135c-7 0-13 3-20 6l-77 42c-19 10-25 35-12 54 9 20 35 26 54 13l74-45c19-9 25-32 13-51-7-13-20-19-32-19m-55-186h-86c-23 0-39 16-39 38 0 23 16 39 39 39h86c22 0 39-16 39-39 0-22-17-38-39-38m-26-231c-12 0-25 7-32 19-9 20-3 42 13 55l74 45c19 9 42 3 54-13 10-22 4-48-16-58l-73-45c-7-3-13-3-20-3m167-173c-6 0-13 3-19 6-19 10-26 36-13 55l42 74c9 19 35 25 54 13 19-10 26-36 13-55l-42-74c-9-9-22-19-35-19m228-64c-23 0-39 16-39 38v87c0 22 16 39 39 39 22 0 38-17 38-39v-87c0-19-16-38-38-38m230 61c-12 0-25 6-35 19l-45 74c-9 19-3 42 13 54 19 10 42 4 55-12l44-74c10-19 4-42-12-55-7-6-13-6-20-6m170 167c-6 0-13 3-19 6l-74 42c-19 9-25 35-12 54 9 19 35 26 54 13l74-45c19-9 25-35 13-54-7-10-20-16-36-16m68 227h-87c-22 0-38 16-38 39 0 22 16 38 38 38h87c22 0 38-16 38-38 0-20-19-39-38-39m-135 189c-13 0-26 7-32 20-10 19-3 41 13 54l73 42c20 9 42 3 55-13 10-19 3-42-13-55l-74-45c-9-3-16-3-22-3m-135 138c-6 0-12 3-19 7-19 9-26 35-13 54l45 74c10 19 35 25 55 13 19-10 25-36 12-55l-44-74c-10-12-23-19-36-19" horiz-adv-x="1000" />
<glyph glyph-name="arrow-right" unicode="&#xe027;" d="m504 832c-271 0-491-220-491-491 0-271 220-491 491-491 271 0 491 220 491 491 0 271-220 491-491 491z m203-536l-210-210c-19-19-51-19-70 0l-17 18c-20 19-20 50 0 70l160 160-160 160c-20 19-20 51 0 70l17 18c19 19 51 19 70 0l210-210c10-11 15-25 14-38 1-14-4-28-14-38z" horiz-adv-x="1000" />
<glyph glyph-name="caret-right" unicode="&#xe028;" d="m871 352c0-15-6-28-17-40l-553-393c-11-11-25-17-40-17s-28 6-39 17c-11 11-17 24-17 39v787c0 16 6 29 17 40 11 11 24 17 39 17s29-6 40-17l553-393c11-12 17-25 17-40z" horiz-adv-x="1000" />
<glyph glyph-name="0827-chevron-down" unicode="&#xe800;" d="m0 550c0 6 3 13 7 18 10 9 26 9 36 0l432-433 432 433c10 9 26 9 36 0s9-26 0-36l-450-450c-10-9-26-9-36 0l-450 450c-5 5-7 12-7 18z" horiz-adv-x="1000" />
<glyph glyph-name="star-1" unicode="&#xe801;" d="m929 489q0-12-15-27l-203-197 48-279q1-4 1-12 0-11-6-19t-17-9q-10 0-22 7l-251 132-250-132q-13-7-23-7-11 0-17 9t-6 19q0 4 1 12l48 279-203 197q-14 15-14 27 0 21 31 26l280 40 126 254q11 23 27 23t28-23l125-254 280-40q32-5 32-26z" horiz-adv-x="928.6" />
<glyph glyph-name="0387-map2" unicode="&#xe802;" d="m938 796c-7 5-16 5-24 1l-289-144-289 144c-7 4-15 4-22 0l-300-150c-8-4-14-13-14-22v-750c0-9 5-17 12-21 4-3 9-4 13-4 4 0 8 1 11 3l289 144 289-144c7-4 15-4 22 0l300 150c9 4 14 13 14 22v750c0 9-4 17-12 21z m-638-755l-250-126v695l250 125v-694z m50 694l250-125v-695l-250 126v694z m550-694l-250-126v695l250 125v-694z" horiz-adv-x="1000" />
<glyph glyph-name="0813-list" unicode="&#xe803;" d="m975 50h-750c-14 0-25 11-25 25s11 25 25 25h750c14 0 25-11 25-25s-11-25-25-25z m0 250h-750c-14 0-25 11-25 25s11 25 25 25h750c14 0 25-11 25-25s-11-25-25-25z m0 250h-750c-14 0-25 11-25 25s11 25 25 25h750c14 0 25-11 25-25s-11-25-25-25z m-900-50c-41 0-75 34-75 75s34 75 75 75 75-34 75-75-34-75-75-75z m0 100c-14 0-25-11-25-25s11-25 25-25 25 11 25 25-11 25-25 25z m0-350c-41 0-75 34-75 75s34 75 75 75 75-34 75-75c0-41-34-75-75-75z m0 100c-14 0-25-11-25-25s11-25 25-25 25 11 25 25-11 25-25 25z m0-350c-41 0-75 34-75 75s34 75 75 75 75-34 75-75-34-75-75-75z m0 100c-14 0-25-11-25-25s11-25 25-25 25 11 25 25-11 25-25 25z" horiz-adv-x="1000" />
<glyph glyph-name="0822-cross2" unicode="&#xe804;" d="m535 325l433 432c9 10 9 26 0 36s-26 9-36 0l-432-433-432 433c-10 9-26 9-36 0s-9-26 0-36l433-432-433-432c-9-10-9-26 0-36 5-5 12-7 18-7s13 2 18 7l432 433 432-433c5-5 12-7 18-7s13 2 18 7c10 10 10 26 0 36l-432 432z" horiz-adv-x="1000" />
<glyph glyph-name="search-1" unicode="&#xe805;" d="m944-108l-298 324c67 70 104 162 104 259 0 100-39 194-110 265s-165 110-265 110-194-39-265-110-110-165-110-265 39-194 110-265 165-110 265-110c86 0 168 29 235 82l297-324c5-5 11-8 18-8 6 0 12 2 17 7 10 9 11 25 2 35z m-894 583c0 179 146 325 325 325s325-146 325-325-146-325-325-325-325 146-325 325z" horiz-adv-x="1000" />
<glyph glyph-name="share" unicode="&#xe806;" d="m491 741c0-44 0-83 0-127-5 0-14 0-18 0-72 0-147 0-218 0-27 0-37-10-37-37 0-153 0-319 0-472 0-26 11-37 37-37 154 0 318 0 472 0 26 0 37 11 37 37 0 71 0 146 0 218 0 5 0 12 0 18 43 0 83 0 127 0 0-4 0-14 0-18 0-73 0-145 0-218 0-82-58-146-138-162-11-2-33-2-44-2-155 0-299 0-454 0-84 0-146 52-162 133-2 10-2 20-2 31 0 155 0 311 0 466 0 94 70 170 164 170 73 0 147 0 221 0 3 0 10 0 15 0z m291 0c-28 0-66 0-91 0 0 43 0 65 0 109 100 0 209 0 309 0 0-99 0-209 0-309-44 0-84 0-127 0 0 24 0 67 0 91-126-126-257-257-382-382-33 33-60 60-91 91 125 125 254 272 382 400z" horiz-adv-x="1000" />
<glyph glyph-name="pointer" unicode="&#xe807;" d="m500-150c-14 18-27 35-40 52-70 94-137 191-196 292-37 62-72 126-97 195-11 29-20 58-23 89-1 17 0 35 1 53 1 28 7 55 17 81 46 121 132 197 257 229 22 6 44 8 67 9 90 3 170-23 240-80 66-53 108-122 124-206 4-22 6-45 7-67 0-30-8-59-17-88-17-53-41-103-68-152-78-142-171-275-269-404-1-1-2-1-3-3z m0 96c2 2 3 3 4 5 73 98 142 199 202 305 29 51 55 103 75 159 9 23 16 46 18 71 1 25-1 50-6 75-28 125-137 221-271 231-27 2-54 1-80-5-95-20-165-72-210-158-16-30-26-63-30-97-1-16-2-33-1-49 2-23 9-44 16-65 22-62 53-121 86-178 58-100 124-196 192-289 2-2 3-3 5-5z m0 492c-33 0-58 25-58 58 0 31 26 57 58 57 35-1 58-30 58-58-1-32-26-57-58-57z" horiz-adv-x="1000" />
<glyph glyph-name="chevron-right-circle" unicode="&#xe808;" d="m811 661c-90 90-209 139-336 139s-246-49-336-139-139-209-139-336 49-246 139-336 209-139 336-139 246 49 336 139 139 209 139 336-49 246-139 336z m-336-761c-234 0-425 191-425 425s191 425 425 425c234 0 425-191 425-425s-191-425-425-425z m-75 150c-6 0-13 3-18 7-9 10-9 26 0 36l233 232-233 232c-9 10-9 26 0 36s26 9 36 0l250-250c9-10 9-26 0-36l-250-250c-5-5-12-7-18-7z" horiz-adv-x="1000" />
<glyph glyph-name="chevron-left-circle" unicode="&#xe809;" d="m139 661c90 90 209 139 336 139s246-49 336-139 139-209 139-336-49-246-139-336-209-139-336-139-246 49-336 139-139 209-139 336 49 246 139 336z m336-761c234 0 425 191 425 425s-191 425-425 425c-234 0-425-191-425-425s191-425 425-425z m75 150c6 0 13 3 18 7 10 10 10 26 0 36l-233 232 233 232c10 10 10 26 0 36s-26 9-36 0l-250-250c-9-10-9-26 0-36l250-250c5-5 12-7 18-7z" horiz-adv-x="1000" />
<glyph glyph-name="envelope" unicode="&#xe80a;" d="m921 670h-842c-42 0-79-37-79-79v-474c0-42 37-79 79-79h842c42 0 79 37 79 79v474c0 42-37 79-79 79z m0-53c0 0 5 0 0 0l-389-263c-16-10-43-10-58 0l-400 263h5 842l0 0z m0-526h-842c-16 0-26 10-26 26v453l389-258c16-10 37-16 58-16s42 5 58 16l389 258v-453c0-15-10-26-26-26z" horiz-adv-x="1000" />
</font>
</defs>
</svg>
