<?xml version="1.0" encoding="utf-8"?>
<!-- Generator: Adobe Illustrator 16.0.3, SVG Export Plug-In . SVG Version: 6.00 Build 0)  -->
<!DOCTYPE svg PUBLIC "-//W3C//DTD SVG 1.1//EN" "http://www.w3.org/Graphics/SVG/1.1/DTD/svg11.dtd">
<svg version="1.1" id="Ebene_1" xmlns="http://www.w3.org/2000/svg" xmlns:xlink="http://www.w3.org/1999/xlink" x="0px" y="0px"
	 width="34.248px" height="32.753px" viewBox="0 0 34.248 32.753" enable-background="new 0 0 34.248 32.753" xml:space="preserve">
<g>
	<path fill="#231F20" d="M20.996,45.187"/>
</g>
<path fill="none" stroke="#231F20" stroke-width="0.56" d="M20.996,45.187"/>
<path fill="#475065" d="M17.123,26.716c0.986,0,1.924,0.207,2.643,0.586l6.346,3.334c0.166,0.088,0.283,0.121,0.354,0.137
	c0.01-0.074,0.014-0.195-0.018-0.379l-1.213-7.064c-0.283-1.65,0.436-3.859,1.635-5.029L32,13.298
	c0.137-0.13,0.203-0.229,0.238-0.295c-0.066-0.031-0.18-0.071-0.365-0.099l-7.092-1.031c-1.656-0.241-3.537-1.605-4.279-3.107
	l-3.17-6.427c-0.084-0.168-0.158-0.264-0.209-0.316C17.072,2.075,17,2.171,16.916,2.339l-3.17,6.426
	c-0.744,1.503-2.623,2.867-4.279,3.108l-7.092,1.031c-0.186,0.027-0.301,0.067-0.365,0.099c0.033,0.065,0.102,0.165,0.236,0.295
	l5.133,5.003c1.199,1.17,1.918,3.38,1.633,5.029l-1.211,7.064c-0.031,0.184-0.029,0.305-0.018,0.377
	c0.074-0.014,0.191-0.047,0.354-0.135l6.342-3.334C15.199,26.923,16.139,26.716,17.123,26.716 M26.539,32.753
	c-0.428,0-0.881-0.123-1.348-0.367L18.85,29.05c-0.871-0.459-2.58-0.459-3.451,0l-6.344,3.336c-1.092,0.574-2.166,0.451-2.775-0.271
	c-0.295-0.35-0.607-0.99-0.426-2.055l1.213-7.063C7.242,21.975,6.742,20.439,6,19.715l-5.133-5.003
	c-0.744-0.725-1.027-1.575-0.779-2.334c0.246-0.759,0.975-1.278,2.004-1.428l7.09-1.03c1.029-0.149,2.334-1.098,2.793-2.029
	l3.17-6.426C15.604,0.534,16.326,0,17.123,0s1.52,0.534,1.979,1.465l3.172,6.428c0.461,0.93,1.764,1.878,2.791,2.027l7.094,1.03
	c1.025,0.149,1.756,0.669,2.004,1.428c0.246,0.759-0.039,1.609-0.781,2.334l-5.135,5.005c-0.742,0.723-1.24,2.257-1.064,3.28
	l1.213,7.063c0.182,1.064-0.131,1.705-0.426,2.055C27.619,32.527,27.111,32.753,26.539,32.753"/>
</svg>
