<?xml version="1.0" encoding="utf-8"?>
<!-- Generator: Adobe Illustrator 16.0.3, SVG Export Plug-In . SVG Version: 6.00 Build 0)  -->
<!DOCTYPE svg PUBLIC "-//W3C//DTD SVG 1.1//EN" "http://www.w3.org/Graphics/SVG/1.1/DTD/svg11.dtd">
<svg version="1.1" id="Ebene_1" xmlns="http://www.w3.org/2000/svg" xmlns:xlink="http://www.w3.org/1999/xlink" x="0px" y="0px"
	 width="30.859px" height="32.405px" viewBox="0 0 30.859 32.405" enable-background="new 0 0 30.859 32.405" xml:space="preserve">
<g>
	<path fill="#475065" d="M15.322,32.405c-5.774,0-10.995-1.992-13.623-5.199c-0.31-0.379-0.253-0.938,0.125-1.246
		c0.379-0.311,0.938-0.256,1.248,0.123c2.264,2.764,7.071,4.549,12.25,4.549c5.176,0,9.984-1.785,12.249-4.549
		c0.313-0.379,0.869-0.434,1.248-0.123c0.38,0.309,0.436,0.867,0.125,1.246C26.316,30.413,21.096,32.405,15.322,32.405"/>
	<path fill="#475065" d="M24.679,29.69c-0.32,0-0.631-0.178-0.789-0.482l-4.021-7.836c-0.224-0.436-0.051-0.971,0.386-1.193
		c0.435-0.225,0.97-0.053,1.192,0.383l4.021,7.838c0.224,0.436,0.051,0.971-0.386,1.193C24.954,29.657,24.815,29.69,24.679,29.69"/>
	<path fill="#475065" d="M5.009,29.69c-0.126,0-0.253-0.027-0.374-0.084c-0.443-0.207-0.638-0.734-0.431-1.178l3.747-8.055
		c0.206-0.445,0.732-0.639,1.179-0.432c0.443,0.207,0.635,0.734,0.429,1.178l-3.745,8.057C5.662,29.499,5.344,29.69,5.009,29.69"/>
	<path fill="#475065" d="M0.888,16.389c-0.116,0-0.232-0.022-0.344-0.069c-0.452-0.191-0.663-0.71-0.475-1.163
		c0.716-1.702,1.769-2.802,3.133-3.271c2.066-0.711,4.03,0.361,4.112,0.407c0.428,0.238,0.581,0.778,0.341,1.206
		c-0.237,0.426-0.774,0.579-1.201,0.344c-0.023-0.013-1.381-0.735-2.688-0.276c-0.859,0.303-1.554,1.068-2.063,2.279
		C1.562,16.185,1.233,16.389,0.888,16.389"/>
	<path fill="#475065" d="M10.261,13.444c-2.53,0-4.365,1.367-4.365,3.251c0,1.853,3.466,3.914,8.441,3.914
		c6.733,0,8.051-2.684,8.455-4.701c0.771-3.832,1.104-7.215,1.107-7.247c0.023-0.243,0.146-0.464,0.337-0.613
		c0.191-0.15,0.435-0.215,0.677-0.179c1.355,0.201,2.683,0.034,3.531-0.433c0.44-0.243,0.642-0.515,0.642-0.661
		c0-0.773-2.536-1.359-4.39-1.788l-1.213-0.282c-0.254-0.062-0.644-0.152-1.636-1.748L21.37,4.265
		c0.001,0.113-0.021,0.229-0.066,0.337c-0.606,1.433-1.232,6.151-1.423,7.849c-0.043,0.374-0.315,0.682-0.682,0.765
		c-2.354,0.544-4.316,0.762-7.994,0.29C10.888,13.465,10.568,13.444,10.261,13.444 M14.337,22.384
		c-5.729,0-10.216-2.498-10.216-5.689c0-2.912,2.582-5.023,6.14-5.023c0.383,0,0.778,0.025,1.17,0.076
		c3.109,0.398,4.804,0.289,6.762-0.124c0.198-1.624,0.736-5.686,1.384-7.471c0.004-0.033,0.01-0.067,0.019-0.101l0.104-0.41
		c0.008-0.032,0.018-0.066,0.031-0.099l1.125-2.972c0.125-0.323,0.426-0.546,0.772-0.57c0.347-0.021,0.674,0.159,0.839,0.467
		c0.538,0.999,1.269,2.198,1.586,2.547l1.045,0.243c2.964,0.687,5.763,1.335,5.763,3.517c0,0.861-0.568,1.668-1.56,2.213
		c-0.867,0.477-2.021,0.739-3.253,0.739c-0.158,0-0.32-0.004-0.479-0.012c-0.149,1.271-0.478,3.764-1.034,6.54
		C23.704,20.38,20.37,22.384,14.337,22.384"/>
</g>
</svg>
