<?xml version="1.0" encoding="utf-8"?>
<!-- Generator: Adobe Illustrator 16.0.3, SVG Export Plug-In . SVG Version: 6.00 Build 0)  -->
<!DOCTYPE svg PUBLIC "-//W3C//DTD SVG 1.1//EN" "http://www.w3.org/Graphics/SVG/1.1/DTD/svg11.dtd">
<svg version="1.1" id="Ebene_1" xmlns="http://www.w3.org/2000/svg" xmlns:xlink="http://www.w3.org/1999/xlink" x="0px" y="0px"
	 width="44.191px" height="41.553px" viewBox="0 0 44.191 41.553" enable-background="new 0 0 44.191 41.553" xml:space="preserve">
<g>
	<path fill="#475065" d="M21.974,6.971c-1.149,0-2.763,0.643-3.518,1.399L2.812,24.014c-0.282,0.283-0.439,0.663-0.439,1.068
		c0,0.404,0.157,0.784,0.439,1.067L15.4,38.738c0.567,0.567,1.572,0.567,2.139,0L33.181,23.1c0.811-0.815,1.467-2.539,1.396-3.688
		L33.957,9.345C33.9,8.47,33.082,7.651,32.206,7.597l-10.065-0.62C22.087,6.974,22.028,6.971,21.974,6.971 M16.469,41.553
		c-1.04,0-2.014-0.403-2.748-1.136L1.134,27.828C0.4,27.098,0,26.123,0,25.082c0-1.039,0.4-2.015,1.134-2.746L16.777,6.694
		c1.285-1.288,3.684-2.205,5.509-2.088l10.066,0.622c2.096,0.13,3.84,1.873,3.97,3.97l0.62,10.066
		c0.114,1.811-0.802,4.23-2.085,5.512L19.219,40.417C18.484,41.149,17.507,41.553,16.469,41.553"/>
	<path fill="#475065" d="M34.475,13.4c-1.974,0-3.869-0.397-5.479-1.148c-0.598-0.276-0.854-0.982-0.575-1.576
		c0.276-0.595,0.98-0.852,1.575-0.574c1.301,0.604,2.85,0.926,4.479,0.926c3.98,0,7.343-1.981,7.343-4.328
		c0-2.344-3.362-4.324-7.343-4.324c-3.49,0-6.599,1.544-7.229,3.591c-0.196,0.628-0.86,0.979-1.488,0.787
		c-0.626-0.194-0.976-0.858-0.781-1.486C25.931,2.167,29.836,0,34.475,0c5.447,0,9.717,2.944,9.717,6.699
		C44.191,10.456,39.922,13.4,34.475,13.4"/>
</g>
</svg>
