<?xml version="1.0" encoding="utf-8"?>
<!-- Generator: Adobe Illustrator 16.0.3, SVG Export Plug-In . SVG Version: 6.00 Build 0)  -->
<!DOCTYPE svg PUBLIC "-//W3C//DTD SVG 1.1//EN" "http://www.w3.org/Graphics/SVG/1.1/DTD/svg11.dtd">
<svg version="1.1" id="Ebene_1" xmlns="http://www.w3.org/2000/svg" xmlns:xlink="http://www.w3.org/1999/xlink" x="0px" y="0px"
	 width="43.348px" height="37.494px" viewBox="0 0 43.348 37.494" enable-background="new 0 0 43.348 37.494" xml:space="preserve">
<g>
	<g>
		<path fill="#475065" d="M38.552,37.494H4.796C2.151,37.494,0,35.475,0,32.998V15.484c0-2.482,2.151-4.502,4.796-4.502h2.51
			c0.537,0,0.971,0.436,0.971,0.973c0,0.533-0.434,0.969-0.971,0.969h-2.51c-1.575,0-2.857,1.148-2.857,2.561v17.514
			c0,1.41,1.282,2.559,2.857,2.559h33.756c1.576,0,2.857-1.148,2.857-2.559V15.484c0-1.412-1.281-2.561-2.857-2.561h-2.599
			c-0.534,0-0.969-0.436-0.969-0.969c0-0.537,0.435-0.973,0.969-0.973h2.599c2.643,0,4.796,2.02,4.796,4.502v17.514
			C43.348,35.475,41.194,37.494,38.552,37.494z"/>
	</g>
	<g>
		<g>
			<path fill="#475065" d="M19.54,34.049c-0.006,0-0.012,0-0.012,0c-0.543-0.01-0.969-0.451-0.959-0.984
				c0.019-0.984,0.066-3.576,0.066-3.793c0-2.004-1.912-3.893-3.71-4.646c-0.38-0.16-0.616-0.541-0.593-0.951
				c0.024-0.412,0.307-0.762,0.702-0.875c0.646-0.184,1.258-1.016,1.258-1.707c0-1.52-1.377-2.76-3.068-2.76
				c-1.69,0-3.067,1.24-3.067,2.76c0,0.684,0.813,1.588,1.512,1.912c0.35,0.16,0.57,0.514,0.563,0.896
				c-0.007,0.381-0.24,0.727-0.593,0.875c-1.901,0.799-3.826,2.6-3.826,4.496c0,0.217,0.047,2.809,0.064,3.793
				c0.011,0.533-0.416,0.975-0.951,0.984H6.91c-0.528,0-0.958-0.422-0.969-0.951c-0.007-0.361-0.065-3.553-0.065-3.826
				c0-2.324,1.635-4.299,3.576-5.529c-0.709-0.732-1.233-1.693-1.233-2.65c0-2.59,2.246-4.697,5.006-4.697
				c2.761,0,5.004,2.107,5.004,4.697c0,0.922-0.421,1.859-1.071,2.557c1.859,1.27,3.415,3.34,3.415,5.623
				c0,0.273-0.057,3.465-0.064,3.826C20.498,33.627,20.065,34.049,19.54,34.049z"/>
		</g>
	</g>
	<g>
		<path fill="#475065" d="M37.877,22.576H24.573c-0.536,0-0.97-0.432-0.97-0.967c0-0.537,0.434-0.969,0.97-0.969h13.304
			c0.534,0,0.968,0.432,0.968,0.969C38.845,22.145,38.411,22.576,37.877,22.576z"/>
	</g>
	<g>
		<path fill="#475065" d="M37.877,26.945H24.573c-0.536,0-0.97-0.434-0.97-0.971c0-0.531,0.434-0.965,0.97-0.965h13.304
			c0.534,0,0.968,0.434,0.968,0.965C38.845,26.512,38.411,26.945,37.877,26.945z"/>
	</g>
	<g>
		<path fill="#475065" d="M37.877,31.313H24.573c-0.536,0-0.97-0.432-0.97-0.967c0-0.537,0.434-0.969,0.97-0.969h13.304
			c0.534,0,0.968,0.432,0.968,0.969C38.845,30.881,38.411,31.313,37.877,31.313z"/>
	</g>
	<g>
		<path fill="#475065" d="M32.349,14.643H10.732c-0.534,0-0.97-0.432-0.97-0.967v-1.008c0-3.725,2.94-6.754,6.555-6.754h0.457
			c-0.006-0.125-0.007-0.248-0.007-0.373C16.768,1.453,19.233,0,21.54,0s4.774,1.453,4.774,5.541c0,0.125-0.002,0.248-0.008,0.373
			h0.455c3.614,0,6.556,3.029,6.556,6.754v1.008C33.317,14.211,32.884,14.643,32.349,14.643z M11.7,12.705h19.68v-0.037
			c0-2.656-2.07-4.816-4.618-4.816h-1.521c-0.281,0-0.553-0.121-0.736-0.34c-0.185-0.215-0.266-0.5-0.22-0.777
			c0.062-0.395,0.093-0.795,0.093-1.193c0-2.324-1.009-3.605-2.838-3.605c-1.828,0-2.838,1.281-2.838,3.605
			c0,0.402,0.032,0.803,0.094,1.191c0.045,0.279-0.037,0.564-0.221,0.779c-0.184,0.219-0.451,0.34-0.734,0.34h-1.523
			c-2.546,0-4.617,2.16-4.617,4.816V12.705z"/>
	</g>
</g>
</svg>
