<?xml version="1.0" encoding="UTF-8" standalone="no"?>
<!-- Generated by IcoMoon.io -->

<svg
   xmlns:dc="http://purl.org/dc/elements/1.1/"
   xmlns:cc="http://creativecommons.org/ns#"
   xmlns:rdf="http://www.w3.org/1999/02/22-rdf-syntax-ns#"
   xmlns:svg="http://www.w3.org/2000/svg"
   xmlns="http://www.w3.org/2000/svg"
   xmlns:sodipodi="http://sodipodi.sourceforge.net/DTD/sodipodi-0.dtd"
   xmlns:inkscape="http://www.inkscape.org/namespaces/inkscape"
   version="1.1"
   width="20"
   height="20"
   viewBox="0 0 20 20"
   id="svg2"
   inkscape:version="0.48.5 r10040"
   sodipodi:docname="camera.svg">
  <metadata
     id="metadata12">
    <rdf:RDF>
      <cc:Work
         rdf:about="">
        <dc:format>image/svg+xml</dc:format>
        <dc:type
           rdf:resource="http://purl.org/dc/dcmitype/StillImage" />
      </cc:Work>
    </rdf:RDF>
  </metadata>
  <defs
     id="defs10" />
  <sodipodi:namedview
     pagecolor="#ffffff"
     bordercolor="#666666"
     borderopacity="1"
     objecttolerance="10"
     gridtolerance="10"
     guidetolerance="10"
     inkscape:pageopacity="0"
     inkscape:pageshadow="2"
     inkscape:window-width="678"
     inkscape:window-height="480"
     id="namedview8"
     showgrid="false"
     inkscape:zoom="11.8"
     inkscape:cx="10"
     inkscape:cy="10"
     inkscape:window-x="0"
     inkscape:window-y="0"
     inkscape:window-maximized="0"
     inkscape:current-layer="svg2" />
  <path
     d="M19.131 17.053c-0 0-0 0-0 0-0.242-0-0.485-0.097-0.724-0.288l-3.438-2.751c-0.552-0.442-0.969-1.308-0.969-2.015v-3c0-0.707 0.416-1.573 0.969-2.015l3.438-2.751c0.239-0.191 0.482-0.288 0.724-0.288 0.433-0 0.869 0.326 0.869 1.053v11c0 0.278-0.064 0.512-0.19 0.694-0.157 0.228-0.405 0.359-0.679 0.359zM19 5.040l-3.407 2.725c-0.31 0.248-0.593 0.837-0.593 1.234v3c0 0.398 0.283 0.986 0.593 1.234l3.407 2.725v-10.919z"
     fill="#000000"
     id="path4"
     style="fill:#475065;fill-opacity:1" />
  <path
     d="M11.5 17h-10c-0.827 0-1.5-0.673-1.5-1.5v-10c0-0.827 0.673-1.5 1.5-1.5h10c0.827 0 1.5 0.673 1.5 1.5v10c0 0.827-0.673 1.5-1.5 1.5zM1.5 5c-0.276 0-0.5 0.224-0.5 0.5v10c0 0.276 0.224 0.5 0.5 0.5h10c0.276 0 0.5-0.224 0.5-0.5v-10c0-0.276-0.224-0.5-0.5-0.5h-10z"
     fill="#000000"
     id="path6"
     style="fill:#475065;fill-opacity:1" />
</svg>
