<?xml version="1.0" encoding="utf-8"?>
<!-- Generator: Adobe Illustrator 16.0.3, SVG Export Plug-In . SVG Version: 6.00 Build 0)  -->
<!DOCTYPE svg PUBLIC "-//W3C//DTD SVG 1.1//EN" "http://www.w3.org/Graphics/SVG/1.1/DTD/svg11.dtd">
<svg version="1.1" id="Ebene_1" xmlns="http://www.w3.org/2000/svg" xmlns:xlink="http://www.w3.org/1999/xlink" x="0px" y="0px"
	 width="30.859px" height="28.4px" viewBox="0 0 30.859 28.4" enable-background="new 0 0 30.859 28.4" xml:space="preserve">
<g>
	<path fill="#475065" d="M20.283,9.497L20.283,9.497c0.422,0,0.777,0.316,0.83,0.735c0.246,2.029,1.975,3.561,4.021,3.561
		c2.189,0,3.98-1.745,4.053-3.917L26.23,1.67h-21.6L1.674,9.876c0.074,2.172,1.865,3.917,4.055,3.917
		c2.045,0,3.775-1.531,4.021-3.561c0.051-0.419,0.408-0.735,0.83-0.735c0.42,0,0.777,0.316,0.828,0.735
		c0.246,2.029,1.979,3.561,4.023,3.561c2.047,0,3.775-1.531,4.023-3.561C19.506,9.813,19.861,9.497,20.283,9.497 M25.135,15.462
		c-2.027,0-3.834-1.063-4.852-2.689c-1.02,1.626-2.826,2.689-4.852,2.689s-3.834-1.063-4.852-2.689
		c-1.02,1.626-2.826,2.689-4.852,2.689C2.572,15.462,0,12.894,0,9.735c0-0.095,0.02-0.192,0.051-0.282L3.26,0.552
		C3.379,0.222,3.693,0,4.045,0h22.771c0.354,0,0.668,0.222,0.787,0.552l3.207,8.901c0.033,0.09,0.049,0.188,0.049,0.282
		C30.859,12.894,28.291,15.462,25.135,15.462"/>
	<path fill="#475065" d="M27.086,28.4H3.777c-0.459,0-0.834-0.375-0.834-0.834V14.84c0-0.459,0.375-0.834,0.834-0.834
		c0.463,0,0.836,0.375,0.836,0.834v11.89h21.639V14.84c0-0.459,0.373-0.834,0.834-0.834s0.834,0.375,0.834,0.834v12.726
		C27.92,28.025,27.547,28.4,27.086,28.4"/>
	<path fill="#475065" d="M18.641,24.015H7.84c-0.463,0-0.836-0.373-0.836-0.834V14.2c0-0.461,0.373-0.835,0.836-0.835
		c0.461,0,0.834,0.374,0.834,0.835v8.145h9.129V14.2c0-0.461,0.375-0.835,0.838-0.835c0.461,0,0.832,0.374,0.832,0.835v8.981
		C19.473,23.642,19.102,24.015,18.641,24.015"/>
</g>
</svg>
