<?xml version="1.0" encoding="utf-8"?>
<!-- Generator: Adobe Illustrator 16.0.3, SVG Export Plug-In . SVG Version: 6.00 Build 0)  -->
<!DOCTYPE svg PUBLIC "-//W3C//DTD SVG 1.1//EN" "http://www.w3.org/Graphics/SVG/1.1/DTD/svg11.dtd">
<svg version="1.1" id="Ebene_1" xmlns="http://www.w3.org/2000/svg" xmlns:xlink="http://www.w3.org/1999/xlink" x="0px" y="0px"
	 width="35.732px" height="30.115px" viewBox="0 0 35.732 30.115" enable-background="new 0 0 35.732 30.115" xml:space="preserve">
<g>
	<path fill="#475065" d="M20.357,12.113h-1.826c-2.306,0-4.18-1.696-4.18-3.781V1.931c0-0.54,0.439-0.981,0.98-0.981
		c0.542,0,0.98,0.441,0.98,0.981v6.401c0,1.003,0.997,1.82,2.219,1.82h1.826c1.224,0,2.218-0.817,2.218-1.82V1.931
		c0-0.54,0.44-0.981,0.981-0.981c0.543,0,0.98,0.441,0.98,0.981v6.401C24.537,10.417,22.662,12.113,20.357,12.113"/>
	<path fill="#475065" d="M19.445,30.115c-0.543,0-0.981-0.439-0.981-0.98V1.931c0-0.541,0.438-0.981,0.981-0.981
		c0.541,0,0.981,0.44,0.981,0.981v27.204C20.427,29.675,19.986,30.115,19.445,30.115"/>
	<path fill="#475065" d="M4.826,30.115c-0.541,0-0.981-0.439-0.981-0.98V13.816c0-0.542,0.44-0.981,0.981-0.981
		c0.542,0,0.981,0.439,0.981,0.981v15.318C5.808,29.675,5.368,30.115,4.826,30.115"/>
	<path fill="#475065" d="M4.842,1.934c-1.362,0-2.878,2.164-2.878,5.268c0,3.105,1.516,5.269,2.878,5.269
		c1.36,0,2.878-2.163,2.878-5.269C7.72,4.098,6.202,1.934,4.842,1.934 M4.842,14.433C2.127,14.433,0,11.255,0,7.201
		c0-4.056,2.127-7.229,4.842-7.229c2.714,0,4.84,3.174,4.84,7.229C9.682,11.255,7.556,14.433,4.842,14.433"/>
	<path fill="#475065" d="M34.752,30.115c-0.542,0-0.982-0.439-0.982-0.98V1.512c0-0.544,0.44-0.982,0.982-0.982
		c0.541,0,0.98,0.438,0.98,0.982v27.623C35.732,29.675,35.293,30.115,34.752,30.115"/>
	<path fill="#475065" d="M34.752,19.734c-3.065,0-5.556-2.182-5.556-4.865V4.865c0-2.682,2.49-4.865,5.556-4.865
		c0.541,0,0.98,0.44,0.98,0.982c0,0.541-0.439,0.98-0.98,0.98c-1.981,0-3.593,1.303-3.593,2.902v10.004
		c0,1.6,1.611,2.902,3.593,2.902c0.541,0,0.98,0.439,0.98,0.982C35.732,19.294,35.293,19.734,34.752,19.734"/>
</g>
</svg>
