<svg width="50" height="50" viewBox="0 0 50 50" xmlns="http://www.w3.org/2000/svg" xmlns:sketch="http://www.bohemiancoding.com/sketch/ns"><title>burger</title><desc>Created with Sketch.</desc><g sketch:type="MSLayerGroup" fill="#000"><path d="M44.846 27.483h-39.683c-2.738 0-4.96 2.222-4.96 4.96s2.222 4.96 4.96 4.96h16.121c.682 0 1.24-.556 1.24-1.24 0-.685-.558-1.24-1.24-1.24h-16.121c-1.367 0-2.48-1.114-2.48-2.48 0-1.367 1.114-2.48 2.48-2.48h1.24c7.75 0 14.301 2.011 18.931 5.816 3.492 2.867 4.71 5.779 4.72 5.806.186.469.647.776 1.151.776l.052-.002c.528-.022.982-.377 1.133-.88.037-.114 3.566-11.518 11.213-11.518h1.24c1.367 0 2.48 1.114 2.48 2.48 0 1.367-1.114 2.48-2.48 2.48h-6.2c-.682 0-1.24.556-1.24 1.24 0 .685.558 1.24 1.24 1.24h6.2c2.738 0 4.96-2.225 4.96-4.96 0-2.736-2.222-4.96-4.958-4.958zm-11.736 6.763c-.925 1.426-1.632 2.845-2.13 3.993-.838-1.213-2.108-2.746-3.938-4.268-1.962-1.632-4.224-2.976-6.749-4.008h16.597c-1.362 1.084-2.634 2.517-3.78 4.283zM43.606 17.562h-37.202c-.682 0-1.24-.556-1.24-1.24 0-.823.144-5.134 3.028-9.092 1.523-2.096 3.559-3.752 6.052-4.921 2.956-1.389 6.575-2.091 10.751-2.091 4.182 0 7.805.704 10.761 2.091 2.493 1.171 4.531 2.827 6.057 4.921 2.882 3.958 3.031 8.269 3.031 9.092 0 .685-.556 1.24-1.238 1.24zm-35.88-2.48h34.559c-.179-1.496-.739-4.015-2.47-6.394-2.897-3.976-7.882-5.992-14.816-5.992-6.927 0-11.91 2.019-14.802 5.992-1.731 2.378-2.292 4.898-2.47 6.394zM6.215 25.055c-.809 0-1.56-.441-2.083-1.223l-1.24-1.86c-.377-.573-.226-1.339.345-1.719.573-.379 1.342-.226 1.719.345l1.24 1.86.035.05c.05-.055.112-.144.174-.273l.26-.523c.508-1.017 1.317-1.6 2.22-1.6.9 0 1.709.58 2.22 1.6l.26.523.26-.523c.508-1.017 1.317-1.6 2.22-1.6.9 0 1.709.58 2.22 1.6l.26.523.26-.523c.508-1.017 1.317-1.6 2.22-1.6.9 0 1.709.58 2.217 1.6l.263.523.26-.523c.508-1.017 1.317-1.6 2.22-1.6.9 0 1.709.58 2.217 1.6l.26.523.26-.523c.508-1.017 1.317-1.6 2.22-1.6.9 0 1.709.58 2.22 1.6l.26.523.26-.523c.508-1.017 1.317-1.6 2.22-1.6.9 0 1.709.58 2.22 1.6l.26.523.26-.523c.508-1.017 1.317-1.6 2.22-1.6.9 0 1.709.58 2.22 1.6l.26.523.26-.523c.518-1.032 1.342-1.654 2.267-1.714.863-.052 1.672.392 2.222 1.22l1.24 1.86c.377.57.226 1.339-.345 1.719-.57.379-1.342.226-1.719-.345l-1.24-1.86-.035-.047c-.05.055-.112.141-.174.273l-.26.523c-.508 1.017-1.317 1.6-2.22 1.6-.9 0-1.709-.58-2.22-1.6l-.26-.523-.26.523c-.508 1.017-1.317 1.6-2.22 1.6-.9 0-1.709-.58-2.22-1.6l-.26-.523-.26.523c-.508 1.017-1.317 1.6-2.22 1.6-.9 0-1.709-.58-2.22-1.6l-.26-.523-.26.523c-.508 1.017-1.317 1.6-2.22 1.6-.9 0-1.709-.58-2.22-1.6l-.26-.523-.258.521c-.508 1.017-1.317 1.6-2.217 1.6-.9 0-1.709-.58-2.22-1.6l-.26-.523-.26.523c-.508 1.017-1.317 1.6-2.22 1.6-.9 0-1.709-.58-2.22-1.6l-.26-.523-.26.523c-.508 1.017-1.317 1.6-2.22 1.6-.9 0-1.709-.58-2.22-1.6l-.26-.523-.26.523c-.518 1.032-1.342 1.654-2.267 1.711l-.141.005zM43.606 39.883h-7.44c-.682 0-1.24.556-1.24 1.24 0 .685.558 1.24 1.24 1.24h6.2v1.24c0 2.051-1.669 3.72-3.72 3.72h-27.282c-2.051 0-3.72-1.669-3.72-3.72v-1.24h18.601c.682 0 1.24-.556 1.24-1.24 0-.685-.558-1.24-1.24-1.24h-19.841c-.682 0-1.24.556-1.24 1.24v2.48c0 3.418 2.783 6.2 6.2 6.2h27.282c3.418 0 6.2-2.783 6.2-6.2v-2.48c0-.685-.558-1.24-1.24-1.24z" sketch:type="MSShapeGroup"/></g></svg>